<svg xmlns="http://www.w3.org/2000/svg" xmlns:xlink="http://www.w3.org/1999/xlink" width="1080px" zoomAndPan="magnify" viewBox="0 0 810 809.999993" height="1080px" preserveAspectRatio="xMidYMid meet" version="1.0" aria-hidden="true"><defs><linearGradient class="cerosgradient" data-cerosgradient="true" id="CerosGradient_idd395f956b" gradientUnits="userSpaceOnUse" x1="50%" y1="100%" x2="50%" y2="0%"><stop offset="0%" stop-color="#d1d1d1"/><stop offset="100%" stop-color="#d1d1d1"/></linearGradient><linearGradient/><clipPath id="9df62c08a3"><path d="M 5.445312 81 L 383 81 L 383 690.75 L 5.445312 690.75 Z M 5.445312 81 " clip-rule="nonzero"/></clipPath><clipPath id="cd0c28e9b763c00d7b43a2e"><path d="M 420 81 L 807.945312 81 L 807.945312 690.75 L 420 690.75 Z M 420 81 " clip-rule="nonzero"/></clipPath></defs><g clip-path="url(#9df62c08a3)"><path fill="#318ba2" d="M 213.109375 341.972656 C 175.152344 341.972656 140.21875 354.617188 111.984375 375.679688 C 114.761719 287.769531 182.734375 199.828125 316.847656 111.875 L 296.945312 81 C 102.621094 201.707031 5.445312 334.183594 5.445312 478.40625 C 5.445312 544.632812 23.46875 596.535156 59.550781 634.027344 C 95.605469 671.589844 141.261719 690.324219 196.464844 690.324219 C 251.703125 690.324219 296.207031 675.257812 330.082031 645.074219 C 363.929688 614.933594 380.878906 578.46875 380.878906 535.808594 C 380.878906 535.328125 380.792969 534.972656 380.792969 534.460938 C 381.828125 526.894531 382.558594 519.25 382.558594 511.347656 C 382.558594 417.832031 306.664062 341.972656 213.109375 341.972656 Z M 213.109375 341.972656 " fill-opacity="1" fill-rule="nonzero"/></g><g clip-path="url(#cd0c28e9b763c00d7b43a2e)"><path fill="#318ba2" d="M 760.96875 628.296875 C 763.160156 625.761719 765.816406 623.347656 767.828125 620.699219 C 792.785156 591.183594 807.945312 553.082031 807.945312 511.355469 C 807.945312 417.839844 732.070312 341.957031 638.515625 341.957031 C 595.660156 341.957031 556.652344 357.988281 526.796875 384.238281 C 526.796875 383.195312 526.628906 382.3125 526.628906 381.238281 C 526.628906 291.46875 595.074219 201.652344 732.023438 111.855469 L 712.136719 81 C 517.785156 201.707031 420.613281 334.183594 420.613281 478.4375 C 420.613281 544.667969 438.636719 596.558594 474.730469 634.050781 C 510.78125 671.613281 556.425781 690.371094 611.628906 690.371094 C 666.835938 690.371094 711.398438 675.28125 745.246094 645.082031 C 750.039062 640.871094 753.753906 636.136719 757.855469 631.621094 C 758.9375 630.542969 759.910156 629.421875 760.96875 628.296875 Z M 760.96875 628.296875 " fill-opacity="1" fill-rule="nonzero"/></g></svg>